<svg xmlns="http://www.w3.org/2000/svg" width="430" height="130" xml:space="preserve"><path fill="#121212" d="M43.354 20.667h32.077c.971 0 1.756 1.311 1.756 2.927 0 1.617-.785 2.928-1.756 2.928H43.354c-.969 0-1.756-1.311-1.756-2.928 0-1.616.787-2.927 1.756-2.927zM43.354 11.898h32.077c.971 0 1.756 1.31 1.756 2.927s-.785 2.927-1.756 2.927H43.354c-.969 0-1.756-1.311-1.756-2.927 0-1.617.787-2.927 1.756-2.927z"/><path fill="#F3E729" d="m42.082 29.395-.241.926c-1.649 6.324-4.323 12.623-7.947 18.721a29.619 29.619 0 0 0-4.143 15.157c.019 15.703 12.402 27.888 28.805 28.34 8.488.226 16.352-2.724 22.117-8.332 5.393-5.246 8.363-12.364 8.363-20.045a29.599 29.599 0 0 0-4.252-15.303c-3.507-5.805-6.088-11.826-7.671-17.899l-.408-1.565"/><path fill="#121212" d="M59.393 99.782c1.619 0 2.928.786 2.928 1.756v18.708c0 .969-1.31 1.756-2.928 1.756-1.616 0-2.926-.787-2.926-1.756v-18.708c-.001-.97 1.31-1.756 2.926-1.756zM31.207 88.865c1.145 1.144 1.514 2.626.829 3.313l-13.228 13.228c-.686.686-2.168.315-3.313-.828-1.143-1.143-1.513-2.625-.828-3.311l13.229-13.229c.685-.686 2.168-.316 3.311.827zM89.552 88.866c1.144-1.145 2.626-1.514 3.312-.828l13.229 13.229c.686.686.316 2.168-.829 3.312-1.142 1.142-2.625 1.513-3.311.827L88.725 92.177c-.686-.686-.315-2.168.827-3.311z"/><text transform="translate(125 79.919)" font-family="'HiraKakuPro-W3-90ms-RKSJ-H'" font-size="38.517" letter-spacing="2">明るい</text><text transform="translate(248 81.493)" font-family="'HiraKakuPro-W6-90ms-RKSJ-H'" font-size="38.517" letter-spacing="2">HOUSE</text></svg>